<svg xmlns="http://www.w3.org/2000/svg" viewBox="0 0 960 360" font-family="Segoe UI, Arial, sans-serif" font-size="12">
  <defs>
    <marker id="a5" viewBox="0 0 10 10" refX="9" refY="5" markerWidth="7" markerHeight="7" orient="auto-start-reverse">
      <path d="M0,0 L10,5 L0,10 z" fill="#0f172a"/>
    </marker>
  </defs>
  <rect width="960" height="360" fill="#f8fafc"/>
  <text x="480" y="30" text-anchor="middle" font-size="19" font-weight="700" fill="#0f172a">UI Navigation Flow</text>

  <g>
    <rect x="30" y="70" width="150" height="60" rx="10" fill="#fff" stroke="#0284c7"/>
    <text x="105" y="95" text-anchor="middle" font-weight="600">Home</text>
    <text x="105" y="115" text-anchor="middle" font-size="11">overview + recent</text>
  </g>
  <g>
    <rect x="210" y="70" width="150" height="60" rx="10" fill="#fff" stroke="#0284c7"/>
    <text x="285" y="95" text-anchor="middle" font-weight="600">Settings</text>
    <text x="285" y="115" text-anchor="middle" font-size="11">API keys, model, self-heal</text>
  </g>
  <g>
    <rect x="390" y="70" width="150" height="60" rx="10" fill="#fff" stroke="#0284c7"/>
    <text x="465" y="95" text-anchor="middle" font-weight="600">Orgs</text>
    <text x="465" y="115" text-anchor="middle" font-size="11">add / test connection</text>
  </g>
  <g>
    <rect x="570" y="70" width="150" height="60" rx="10" fill="#fff" stroke="#0284c7"/>
    <text x="645" y="95" text-anchor="middle" font-weight="600">New Run</text>
    <text x="645" y="115" text-anchor="middle" font-size="11">pick Excel + org + AI</text>
  </g>
  <g>
    <rect x="750" y="70" width="180" height="60" rx="10" fill="#fff" stroke="#0284c7"/>
    <text x="840" y="95" text-anchor="middle" font-weight="600">Pipeline Progress</text>
    <text x="840" y="115" text-anchor="middle" font-size="11">live stages · LLM</text>
  </g>

  <g>
    <rect x="210" y="210" width="180" height="60" rx="10" fill="#fff" stroke="#9333ea"/>
    <text x="300" y="235" text-anchor="middle" font-weight="600">Output Folder</text>
    <text x="300" y="255" text-anchor="middle" font-size="11">preview .spec.ts · Run</text>
  </g>
  <g>
    <rect x="420" y="210" width="180" height="60" rx="10" fill="#fff" stroke="#9333ea"/>
    <text x="510" y="235" text-anchor="middle" font-weight="600">Run Detail</text>
    <text x="510" y="255" text-anchor="middle" font-size="11">step status + screenshots</text>
  </g>
  <g>
    <rect x="630" y="210" width="180" height="60" rx="10" fill="#fff" stroke="#9333ea"/>
    <text x="720" y="235" text-anchor="middle" font-weight="600">History</text>
    <text x="720" y="255" text-anchor="middle" font-size="11">all runs · filters</text>
  </g>

  <line x1="180" y1="100" x2="210" y2="100" stroke="#0f172a" stroke-width="1.5" marker-end="url(#a5)"/>
  <line x1="360" y1="100" x2="390" y2="100" stroke="#0f172a" stroke-width="1.5" marker-end="url(#a5)"/>
  <line x1="540" y1="100" x2="570" y2="100" stroke="#0f172a" stroke-width="1.5" marker-end="url(#a5)"/>
  <line x1="720" y1="100" x2="750" y2="100" stroke="#0f172a" stroke-width="1.5" marker-end="url(#a5)"/>

  <line x1="840" y1="130" x2="300" y2="210" stroke="#64748b" stroke-width="1.5" stroke-dasharray="4,3" marker-end="url(#a5)"/>
  <text x="580" y="175" text-anchor="middle" font-size="11" fill="#475569">on completion</text>

  <line x1="390" y1="240" x2="420" y2="240" stroke="#0f172a" stroke-width="1.5" marker-end="url(#a5)"/>
  <line x1="600" y1="240" x2="630" y2="240" stroke="#0f172a" stroke-width="1.5" marker-end="url(#a5)"/>

  <text x="480" y="330" text-anchor="middle" font-size="11" fill="#475569">
    React Router v6 · Shell.tsx wraps all pages with shadcn/ui sidebar
  </text>
</svg>
